<svg width="24px" height="16px" viewBox="0 0 24 16" version="1.1" xmlns="http://www.w3.org/2000/svg" xmlns:xlink="http://www.w3.org/1999/xlink">
    <!-- Generator: Sketch 51.2 (57519) - http://www.bohemiancoding.com/sketch -->
    <desc>Created with Sketch.</desc>
    <defs></defs>
    <g id="Symbols" stroke="none" stroke-width="1" fill="none" fill-rule="evenodd">
        <g id="flag-sk">
            <g id="Group-8">
                <rect id="rect8" fill="#EE1C25" fill-rule="nonzero" x="0" y="0" width="24" height="16"></rect>
                <rect id="rect10" fill="#0B4EA2" fill-rule="nonzero" x="0" y="0" width="24" height="10.6666667"></rect>
                <rect id="rect12" fill="#FFFFFF" fill-rule="nonzero" x="0" y="0" width="24" height="5.33333333"></rect>
                <path d="M8.43346453,12.3599968 C6.99930027,11.669188 4.94786293,10.2980648 4.94786293,7.58577653 C4.94786293,4.87348827 5.0775344,3.6400032 5.0775344,3.6400032 L8.43346453,3.6400032 L11.7894611,3.6400032 C11.7894611,3.6400032 11.9191741,4.87348827 11.9191741,7.58577653 C11.9191741,10.2980648 9.86772027,11.669188 8.43346453,12.3599968 Z" id="path3055" fill="#FFFFFF" fill-rule="nonzero"></path>
                <path d="M8.43346929,3.99999995 C7.11772121,4.63376999 5.23566713,5.89168205 5.23566713,8.3800217 C5.23566713,10.8683613 5.35463203,11.9999999 5.35463203,11.9999999 L8.43346929,11.9999999 L11.5123673,11.9999999 C11.5123673,11.9999999 11.6313702,10.8683613 11.6313702,8.3800217 C11.6313702,5.89168205 9.749301,4.63376999 8.43346929,3.99999995 Z" id="path2828" fill="#EE1C25" fill-rule="nonzero" transform="translate(8.433519, 8.000000) scale(-1, 1) rotate(-180.000000) translate(-8.433519, -8.000000) "></path>
                <path d="M8.43346929,3.99999995 C7.11772121,4.63376999 5.23566713,5.89168205 5.23566713,8.3800217 C5.23566713,10.8683613 5.35463203,11.9999999 5.35463203,11.9999999 L8.43346929,11.9999999 L11.5123673,11.9999999 C11.5123673,11.9999999 11.6313702,10.8683613 11.6313702,8.3800217 C11.6313702,5.89168205 9.749301,4.63376999 8.43346929,3.99999995 Z" id="path2836" transform="translate(8.433519, 8.000000) scale(-1, 1) rotate(-180.000000) translate(-8.433519, -8.000000) "></path>
                <path d="M8.71486932,6.24645498 C9.07113293,6.24069798 9.7662144,6.2267429 10.3851394,6.43384972 C10.3851394,6.43384972 10.368804,6.21236933 10.368804,5.95436985 C10.368804,5.69630947 10.3851394,5.4748445 10.3851394,5.4748445 C9.81742651,5.66481722 9.11635223,5.66877187 8.71486932,5.66368413 L8.71486932,4.28930914 L8.15211473,4.28930914 L8.15211473,5.66368413 C7.75066219,5.66877187 7.04958044,5.664818 6.48184465,5.4748445 C6.48184465,5.4748445 6.49819532,5.69630947 6.49819532,5.95436985 C6.49819532,6.21236933 6.48184465,6.43384972 6.48184465,6.43384972 C7.10077729,6.2267429 7.79585112,6.24069798 8.15211473,6.24645498 L8.15211473,7.10959167 C7.82740427,7.11247398 7.35949166,7.09696733 6.83043491,6.91992297 C6.83043491,6.91992297 6.84678557,7.14140336 6.84678557,7.39944848 C6.84678557,7.65746322 6.83043491,7.87894346 6.83043491,7.87894346 C7.3587084,7.70218818 7.82605065,7.6864306 8.15066984,7.68924454 C8.13399209,8.23579269 7.97475872,8.92471423 7.97475872,8.92471423 C7.97475872,8.92471423 8.30246551,8.89913863 8.43346929,8.89913863 C8.56460982,8.89913863 8.89221786,8.92471423 8.89221786,8.92471423 C8.89221786,8.92471423 8.73303012,8.23579269 8.71631422,7.68924454 C9.0409563,7.6864306 9.50828345,7.70218818 10.0365417,7.87894346 C10.0365417,7.87894346 10.0202061,7.65746322 10.0202061,7.39944848 C10.0202061,7.14140336 10.0365417,6.91992297 10.0365417,6.91992297 C9.50750765,7.09696733 9.03957231,7.11247398 8.71486932,7.10959167 L8.71486932,6.24645498 Z" id="path2838" fill="#FFFFFF" fill-rule="nonzero" transform="translate(8.433492, 6.607012) scale(-1, 1) rotate(-180.000000) translate(-8.433492, -6.607012) "></path>
                <path d="M5.87111319,9.88607332 C6.04246711,9.58478338 6.3123162,9.25898418 6.67805361,9.25898418 C7.21866237,9.25898418 7.41595879,9.69487982 7.41595879,9.69487982 C7.41595879,9.69487982 7.77088388,8.77602889 8.43346929,8.77602889 C9.09610781,8.77602889 9.45104816,9.69487982 9.45104816,9.69487982 C9.45104816,9.69487982 9.64830657,9.25898418 10.1889306,9.25898418 C10.5546859,9.25898418 10.8245391,9.58481525 10.9958877,9.88611753 C10.3304248,10.944962 9.26805162,11.5980235 8.43346929,11.9999999 C7.59892839,11.5980179 6.53656273,10.9449438 5.87111319,9.88607332 Z" id="Combined-Shape" fill="#0B4EA2"></path>
            </g>
        </g>
    </g>
</svg>